<svg xmlns="http://www.w3.org/2000/svg" viewBox="0 0 290 491.56"><defs><style>.cls-1{isolation:isolate;}.cls-2{fill:#61382f;}.cls-10,.cls-3,.cls-4{fill:#f6ccb8;}.cls-10,.cls-4{mix-blend-mode:multiply;}.cls-5{fill:#a990ba;}.cls-6{fill:#141213;}.cls-7{fill:#fff;}.cls-8{fill:#d5d5d5;}.cls-9{fill:#f7cdb9;}.cls-10{opacity:0.8;}.cls-11{fill:#3c2417;}.cls-12{fill:#3f1f1a;}.cls-13{fill:#f05d44;}.cls-14{fill:#f0f1f2;}.cls-15{fill:#ee9d25;}</style></defs><title>grin</title><g class="cls-1"><g id="Layer_2" data-name="Layer 2"><g id="Layer_1-2" data-name="Layer 1"><g id="woman"><path class="cls-2" d="M224.78,243.06c-.1.58-.23,1.09-.36,1.63-1.3,5.54-2.74,10.69-4.32,15.39-2.72,8.1-5.61,14.8-9.29,19.83a27.24,27.24,0,0,1-5.74,5.94c-4.09,3.07-9.09,4.7-15.44,4.7H94.87c-6.63,0-11.78-1.78-16-5.1a27.85,27.85,0,0,1-5.21-5.54c-3.68-5-6.58-11.73-9.29-19.83-1.57-4.7-3-9.85-4.32-15.39-.13-.53-.25-1-.36-1.57C44.87,177.73,49.29,61.83,83,26.92,96.78,12.6,113.87,0,142.26,0c22.5,0,37.91,7.92,50.2,18.36a116.3,116.3,0,0,1,9.09,8.56,49.93,49.93,0,0,1,3.33,3.86C235.5,69.68,239.13,180,224.78,243.06Z"/><polygon class="cls-3" points="167.56 234.59 167.56 202.2 116.78 202.2 116.77 234.59 104.25 236.71 116.77 317.44 167.56 317.44 180.26 236.71 167.56 234.59"/><polygon class="cls-4" points="116.77 202.41 116.43 218.5 167.56 234.59 167.56 202.41 116.77 202.41"/><rect class="cls-5" x="92.1" y="275.75" width="101.71" height="215.81"/><path class="cls-6" d="M113,282.41V234.92c-144.64,21.79-39.72,64.92-39.72,64.92-25.23,36.17-5.56,61.11,6.49,73.42,0,0-5.94,47.43-29.84,118.3H113Z"/><path class="cls-6" d="M171.49,282.41V234.92c144.64,21.79,39.72,64.92,39.72,64.92,25.23,36.17,5.56,61.11-6.49,73.42,0,0,5.94,47.43,29.84,118.3H171.49Z"/><path class="cls-7" d="M80.93,339.34l-1.52.41a5.12,5.12,0,0,1-2.65-9.88l1.52-.41a5.12,5.12,0,0,1,2.65,9.88Z"/><rect class="cls-8" x="86.2" y="334.13" width="11.81" height="99.86" transform="translate(-96.27 36.93) rotate(-15)"/><polygon class="cls-7" points="99.32 433.82 108.04 443.55 110.72 430.76 99.32 433.82"/><polygon class="cls-7" points="96.86 366.85 89.22 338.34 73.26 342.62 72.65 340.34 90.89 335.45 99.14 366.24 96.86 366.85"/><path class="cls-9" d="M101.18,431.94,57.06,447.72,49,414.21l40.67-14.54c8.44-3,17.87,1.76,21.06,10.67S109.62,428.92,101.18,431.94Z"/><path class="cls-9" d="M96.36,441.64c-14.9,5.33-28.82-.68-29.48-1.13a5.93,5.93,0,0,1-1.78-7.87,5.22,5.22,0,0,1,7.48-1.59,13.44,13.44,0,0,0,1.82.53,35.15,35.15,0,0,0,4.54.76,31.26,31.26,0,0,0,13.56-1.45,5.72,5.72,0,0,1,3.85,10.76Z"/><path class="cls-6" d="M20.57,463.13A20.57,20.57,0,0,1,.43,438.38l36.45-173.3,45,10.42L48.16,410.86l16.14-5.09,8.52,40L27.5,461.93A20.59,20.59,0,0,1,20.57,463.13Z"/><path class="cls-3" d="M200.43,118.07V91.66c0-28-32.47-63.48-58.17-63.48S84.08,63.61,84.08,91.66v26.41a12.81,12.81,0,0,0-12.93,12.7V144a12.81,12.81,0,0,0,12.93,12.7c0,28,32.47,64.5,58.17,64.5s58.17-36.45,58.17-64.5A12.81,12.81,0,0,0,213.36,144v-13.2A12.81,12.81,0,0,0,200.43,118.07Z"/><path class="cls-10" d="M142.26,174.19v47c25.7,0,58.17-36.45,58.17-64.5A12.81,12.81,0,0,0,213.36,144v-13.2a12.81,12.81,0,0,0-12.93-12.7V91.66c0-28-32.47-63.48-58.17-63.48V131c-9.43,19.7-12.93,40.63-12.93,40.63Z"/><circle class="cls-4" cx="110.52" cy="135.24" r="10.03" transform="translate(-4.65 3.94) rotate(-2)"/><circle class="cls-11" cx="110.52" cy="132.71" r="10.03" transform="translate(-4.56 3.94) rotate(-2)"/><circle class="cls-7" cx="113.92" cy="129.58" r="2.51" transform="translate(-4.45 4.05) rotate(-2)"/><path class="cls-11" d="M122.71,124.69c-1.85-4.3-6.59-7.55-11.8-8.11-3.19-.35-9.18.12-14.32,6.64a3.79,3.79,0,0,1-.76,0,7.43,7.43,0,0,1-2.14-.57,9.92,9.92,0,0,1-2.89-2,.33.33,0,0,0-.36-.06.31.31,0,0,0-.14.42,11,11,0,0,0,.58,1.06,10.33,10.33,0,0,0,1.71,2.16,10,10,0,0,0,2.37,1.7,7.75,7.75,0,0,0,1,.41c.24.08.49.13.45.13a1.64,1.64,0,0,0,1.62-.88c3.37-4.71,7.88-7,12.69-6.5,4.25.45,8.25,3.16,9.73,6.59a1.27,1.27,0,1,0,2.33-1Z"/><circle class="cls-4" cx="174" cy="135.24" r="10.03" transform="translate(-4.61 6.15) rotate(-2)"/><circle class="cls-11" cx="174" cy="132.71" r="10.03" transform="translate(-4.52 6.15) rotate(-2)"/><circle class="cls-7" cx="177.4" cy="129.58" r="2.51" transform="translate(-4.41 6.27) rotate(-2)"/><path class="cls-11" d="M161.8,124.69c1.85-4.3,6.59-7.55,11.8-8.11,3.19-.35,9.18.12,14.32,6.64a3.79,3.79,0,0,0,.76,0,7.43,7.43,0,0,0,2.14-.57,9.92,9.92,0,0,0,2.89-2,.33.33,0,0,1,.36-.06.31.31,0,0,1,.14.42,11,11,0,0,1-.58,1.06,10.33,10.33,0,0,1-1.71,2.16,10,10,0,0,1-2.37,1.7,7.74,7.74,0,0,1-1,.41c-.24.08-.49.13-.45.13a1.64,1.64,0,0,1-1.62-.88c-3.37-4.71-7.88-7-12.69-6.5-4.25.45-8.25,3.16-9.73,6.59a1.27,1.27,0,1,1-2.33-1Z"/><path class="cls-12" d="M176.07,96.78c1.73,6.2,5.1,14.37,11,19.25-17.27-4.42-32-14.63-42.61-26.71,1,6.25,5,13.05,11.12,19.07a79.11,79.11,0,0,1-13.48-7.77,105.09,105.09,0,0,1-24.53-24.4C107.48,96.6,88.78,122,76.16,122.41,56.52,86.28,70.89,9.82,142,9.82s85.94,73.92,68.13,114.71C195.81,121.47,180.06,102.7,176.07,96.78Z"/><path class="cls-13" d="M162.57,183.57c0,10-9.1,18.06-20.31,18.06s-20.31-8.08-20.31-18.06Z"/><path class="cls-7" d="M125.11,183.57H159a0,0,0,0,1,0,0v5.77a1,1,0,0,1-1,1H126.11a1,1,0,0,1-1-1v-5.77A0,0,0,0,1,125.11,183.57Z"/><circle class="cls-13" cx="207.01" cy="155.97" r="6.35"/><circle class="cls-13" cx="77.5" cy="155.97" r="6.35"/><path class="cls-14" d="M142.26,456.5C98.52,427.18,37.77,456.64,35.1,458L43,473.89c.58-.29,58.46-28.43,93.62.48l5.65-6.86,5.65,6.86c35-28.81,93-.76,93.63-.48L249.42,458C246.74,456.64,186,427.18,142.26,456.5Z"/><path class="cls-15" d="M165.59,463.34l-8-2.56-2.34,7.39-7.59-14.91a69.2,69.2,0,0,1,10.41-4.72Z"/><path class="cls-9" d="M199.94,437.24l38.8-8.59,7.43,33.47-38.83,8.59c-7.67,1.7-15.55-4.42-17.59-13.66S192.27,438.93,199.94,437.24Z"/><path class="cls-9" d="M205.21,425.93c13.54-3,25.26,5,25.79,5.54a6.53,6.53,0,0,1,.89,8,4.23,4.23,0,0,1-6.71.44,24.43,24.43,0,0,0-5.48-2.22,24.71,24.71,0,0,0-12-.61c-2.56.57-5.18-1.47-5.86-4.55S202.65,426.49,205.21,425.93Z"/><path class="cls-6" d="M234.91,468.12,226,428l18.44-4.08L203,274.78l44.6-10,41.86,169.71a20.57,20.57,0,0,1-15.54,25Z"/></g></g></g></g></svg>