<svg height="512pt" viewBox="0 0 512 512" width="512pt" xmlns="http://www.w3.org/2000/svg"><path d="m176 392h96v16h-96zm0 0"/><path d="m176 424h96v16h-96zm0 0"/><path d="m176 456h48v16h-48zm0 0"/><path d="m184 104v8h16v-40c0-22.089844-17.910156-40-40-40s-40 17.910156-40 40v56h16v-24zm-24-56c13.253906 0 24 10.746094 24 24v16h-48v-16c0-13.253906 10.746094-24 24-24zm0 0"/><path d="m400 448h16v16h-16zm0 0"/><path d="m464 200h16v16h-16zm0 0"/><path d="m56 480h48v-48h24v-48h-96v48h24zm-8-64v-16h64v16h-24v48h-16v-48zm0 0"/><path d="m160 208h-160v304h304v-160h-144zm-16 288h-128v-128h128zm-122.214844-144 18.214844-31.871094 18.214844 31.871094zm77.527344 0 13.28125-13.28125 16.597656 13.28125zm44.6875-8.648438-32.59375-26.070312-34.71875 34.71875h-.046875l-36.640625-64.128906-24 42v-105.871094h128zm144 24.648438v128h-128v-128zm0 0"/><path d="m96 304c17.671875 0 32-14.328125 32-32s-14.328125-32-32-32-32 14.328125-32 32 14.328125 32 32 32zm0-48c8.835938 0 16 7.164062 16 16s-7.164062 16-16 16-16-7.164062-16-16 7.164062-16 16-16zm0 0"/><path d="m472 168c-6.867188.042969-13.601562 1.875-19.542969 5.320312l-92-39.046874 6.253907-14.730469-34.464844-14.621094-5.597656-45.84375-85.046876-36.09375-1.601562 1.207031v-24.191406h-160v160h97.832031l1.265625 10.265625 85.023438 36.132813 36.886718-27.796876 34.457032 14.628907 6.253906-14.734375 91.480469 38.808594c1.363281 5.582031 3.925781 10.800781 7.503906 15.296874l-45 177.535157c-16.457031 5.292969-27.640625 20.574219-27.703125 37.863281v48h-31v16h143v-16h-32v-48c.003906-7.929688-2.359375-15.679688-6.792969-22.257812l45.890625-180.75c17.640625-7.257813 27.703125-25.96875 24.035156-44.6875-3.671874-18.722657-20.054687-32.246094-39.132812-32.304688zm-232-83.703125 8.359375-6.296875 29.242187 12.398438-.898437 34.402343-24.109375 24.527344-12.59375-5.328125zm-69.921875 12.613281 5.785156 47.089844h-79.863281v-128h128v121.183594l-.648438-.28125-2.253906-18.335938zm126.5625 64.914063-34.777344 26.175781-68-28.871094-4.496093-36.664062 17 7.199218 2.257812 18.335938 47.75 20.265625 36.152344-36.800781 1.351562-51.578125-47.765625-20.230469-6.113281 4.601562v-20l3.847656-2.90625 68 28.871094 5.304688 43.203125zm30.351563 10.398437-14.726563-6.246094 18.75-44.175781 14.726563 6.199219zm105.878906 27.5625-84.871094-36.058594 6.246094-14.71875 85.074218 36.105469c-3.125 4.394531-5.320312 9.382813-6.449218 14.65625zm-.871094 296.214844h-48v-48c0-13.253906 10.746094-24 24-24s24 10.746094 24 24zm-4.191406-82.535156c-4.671875-2.6875-9.84375-4.386719-15.199219-4.992188l41.789063-164.738281c4.832031 2.390625 10.101562 3.769531 15.480468 4.050781zm44.191406-181.464844c-13.253906 0-24-10.746094-24-24s10.746094-24 24-24 24 10.746094 24 24-10.746094 24-24 24zm0 0"/><path d="m291.183594 206.007812-24.785156 18.671876-31.277344-13.246094-6.242188 14.734375 39.769532 16.839843 32.167968-24.214843zm0 0"/><path d="m344.457031 72.96875 15.886719-1.9375-4.167969-34.191406-33.039062-14.039063-6.273438 14.710938 24.550781 10.441406zm0 0"/><path d="m48 48h16v64h-16zm0 0"/><path d="m16 64h16v80h-16zm0 0"/></svg>