<svg id="Layer_5" enable-background="new 0 0 64 64" height="512" viewBox="0 0 64 64" width="512" xmlns="http://www.w3.org/2000/svg"><path d="m42 57h2v2h-2z"/><path d="m50 57h2v2h-2z"/><path d="m46 57h2v2h-2z"/><path d="m48.223 31.062c.506-1.937.777-3.968.777-6.062 0-13.233-10.767-24-24-24s-24 10.767-24 24 10.767 24 24 24c2.094 0 4.125-.271 6.062-.777.629 8.251 7.529 14.777 15.938 14.777 8.822 0 16-7.178 16-16 0-8.409-6.526-15.309-14.777-15.938zm-45.223-6.062c0-12.131 9.869-22 22-22s22 9.869 22 22-9.869 22-22 22-22-9.869-22-22zm35.982 33.461c1.248-2.121 3.526-3.461 6.018-3.461h4c2.491 0 4.769 1.339 6.018 3.459-2.274 1.596-5.036 2.541-8.018 2.541-2.983 0-5.745-.945-8.018-2.539zm10.018-5.461h-4c0-1.103.897-2 2-2s2 .897 2 2zm7.589 4.173c-1.279-2.009-3.308-3.404-5.611-3.928.005-.082.022-.162.022-.245 0-1.2-.542-2.266-1.382-3l3.276-6.553-1.789-.895-3.269 6.538c-.27-.057-.549-.09-.836-.09-2.206 0-4 1.794-4 4 0 .083.017.163.022.245-2.304.523-4.334 1.919-5.613 3.929-2.574-2.425-4.222-5.803-4.38-9.561 6.783-2.416 12.168-7.8 14.584-14.583 3.259.142 6.229 1.395 8.541 3.401l-2.79 2.79 1.414 1.414 2.79-2.79c1.926 2.22 3.16 5.047 3.381 8.154h-3.949v2h3.949c-.256 3.607-1.879 6.834-4.36 9.174z"/><path d="m25 5c-11.028 0-20 8.972-20 20s8.972 20 20 20 20-8.972 20-20-8.972-20-20-20zm-8.803 35.684c1.843-1.716 4.262-2.684 6.803-2.684h4c2.541 0 4.96.968 6.803 2.684-2.606 1.469-5.605 2.316-8.803 2.316s-6.197-.847-8.803-2.316zm7.821-22.409.982-1.472.982 1.473-.808 13.742c-.059-.002-.114-.018-.174-.018s-.115.016-.174.018zm.982 15.725c1.319 0 2.429.861 2.83 2.045-.276-.019-.551-.045-.83-.045h-4c-.279 0-.554.026-.83.045.401-1.184 1.511-2.045 2.83-2.045zm10.518 5.577c-1.549-1.568-3.476-2.665-5.58-3.198-.216-1.715-1.289-3.154-2.789-3.875l.87-14.78-3.019-4.527-3.018 4.527.87 14.78c-1.5.72-2.573 2.16-2.789 3.875-2.104.533-4.031 1.63-5.58 3.198-4.269-3.089-7.123-7.993-7.432-13.577h3.949v-2h-3.949c.233-4.208 1.91-8.028 4.554-10.981l2.789 2.789 1.414-1.414-2.789-2.789c2.952-2.644 6.772-4.321 10.981-4.554v3.949h2v-3.949c4.209.233 8.029 1.91 10.981 4.554l-2.789 2.789 1.414 1.414 2.789-2.789c2.644 2.953 4.321 6.773 4.554 10.981h-3.949v2h3.949c-.309 5.584-3.163 10.488-7.431 13.577z"/><path d="m12.9 32.045-1.729 1.006c.355.61.757 1.204 1.194 1.768l1.579-1.229c-.382-.492-.734-1.012-1.044-1.545z"/><path d="m13.784 36.409c.505.497 1.048.965 1.615 1.391l1.202-1.598c-.497-.374-.973-.784-1.415-1.219z"/><path d="m11.47 28.611-1.933.514c.182.685.413 1.364.686 2.02l1.847-.768c-.239-.573-.441-1.168-.6-1.766z"/></svg>