<svg height="464pt" viewBox="0 0 464.6351 464" width="464pt" xmlns="http://www.w3.org/2000/svg"><path d="m309.160156 309.367188-11.277344 11.28125-28.320312 28.3125 101.824219 101.824218c18.742187 18.742188 49.132812 18.742188 67.878906 0l5.65625-5.65625zm0 0" fill="#005ece"/><path d="m309.160156 309.367188 135.761719 135.761718 5.65625-5.65625c18.742187-18.746094 18.742187-49.136718 0-67.882812l-101.824219-101.824219-28.3125 28.320313zm0 0" fill="#006df0"/><path d="m15 15.207031-11.277344 11.28125 28.238282 62.238281 37.359374 3.441407 109.761719 109.679687 11.28125-11.28125zm0 0" fill="#d1d3d4"/><path d="m201.640625 179.289062-109.679687-109.761718-3.441407-37.359375-62.238281-28.242188-11.28125 11.28125 175.363281 175.359375zm0 0" fill="#e6e7e8"/><path d="m269.566406 269.769531 11.277344-11.28125 39.597656 39.597657-11.277344 11.28125zm0 0" fill="#e6e7e8"/><path d="m258.285156 281.046875 11.28125-11.277344 39.597656 39.597657-11.28125 11.28125zm0 0" fill="#d1d3d4"/><path d="m309.160156 309.363281 11.28125-11.28125.003906.003907-11.28125 11.28125zm0 0" fill="#78b9eb"/><path d="m297.878906 320.640625 11.28125-11.277344.003906.003907-11.277343 11.28125zm0 0" fill="#78b9eb"/><path d="m453.320312 74.726562-60.320312 60.242188-50.878906-16.960938-322.441406 322.441407 5.640624 5.636719c18.769532 18.722656 49.152344 18.722656 67.921876 0l225.597656-225.597657c40.207031 10.765625 83.066406-1.652343 111.289062-32.242187s37.15625-74.308594 23.191406-113.519532zm0 0" fill="#ffbb60"/><path d="m385.402344 6.808594c-39.210938-13.964844-82.929688-5.03125-113.519532 23.191406-30.589843 28.222656-43.007812 71.082031-32.242187 111.289062l-225.597656 225.597657c-18.722657 18.769531-18.722657 49.152343 0 67.921875l5.636719 5.597656 210.28125-210.238281 112.160156-112.160157-16.960938-50.878906zm0 0" fill="#ffaf46"/></svg>